<svg width="24" height="24" viewBox="0 0 24 24" fill="none" xmlns="http://www.w3.org/2000/svg">
<path fill-rule="evenodd" clip-rule="evenodd" d="M5.99998 3.60001C4.67449 3.60001 3.59998 4.67452 3.59998 6.00001V18C3.59998 19.3255 4.67449 20.4 5.99998 20.4H18C19.3255 20.4 20.4 19.3255 20.4 18V6.00001C20.4 4.67452 19.3255 3.60001 18 3.60001H5.99998ZM16.8 8.40001C16.8 7.73726 16.2627 7.20001 15.6 7.20001C14.9372 7.20001 14.4 7.73726 14.4 8.40001V15.6C14.4 16.2627 14.9372 16.8 15.6 16.8C16.2627 16.8 16.8 16.2627 16.8 15.6V8.40001ZM13.2 10.8C13.2 10.1373 12.6627 9.60001 12 9.60001C11.3372 9.60001 10.8 10.1373 10.8 10.8V15.6C10.8 16.2627 11.3372 16.8 12 16.8C12.6627 16.8 13.2 16.2627 13.2 15.6V10.8ZM9.59998 14.4C9.59998 13.7373 9.06272 13.2 8.39998 13.2C7.73723 13.2 7.19998 13.7373 7.19998 14.4V15.6C7.19998 16.2627 7.73723 16.8 8.39998 16.8C9.06272 16.8 9.59998 16.2627 9.59998 15.6V14.4Z" fill="#081131"/>
</svg>
